<svg width="20" height="20" viewBox="0 0 20 20" fill="none" xmlns="http://www.w3.org/2000/svg">
<g clip-path="url(#clip0_59_5)">
<path d="M14.1667 10.8334V11.6667C14.1667 13.975 13.6134 16.2042 12.5709 18.205L12.3817 18.555L10.9259 17.7434C11.8925 16.01 12.4342 14.0684 12.4942 12.0467L12.5 11.6667V10.8334H14.1667ZM9.16669 8.33336H10.8334V11.6667L10.8292 11.9825C10.7662 14.2639 9.98103 16.4665 8.58669 18.2734L8.39419 18.515L7.10252 17.4617C8.37451 15.9082 9.09832 13.9785 9.16169 11.9717L9.16669 11.6667V8.33336ZM10 5.00003C11.1051 5.00003 12.1649 5.43902 12.9463 6.22042C13.7277 7.00182 14.1667 8.06163 14.1667 9.16669H12.5C12.5 8.50365 12.2366 7.86777 11.7678 7.39893C11.2989 6.93009 10.6631 6.6667 10 6.6667C9.33698 6.6667 8.70109 6.93009 8.23225 7.39893C7.76341 7.86777 7.50002 8.50365 7.50002 9.16669V11.6667C7.50002 13.5292 6.81669 15.2867 5.60752 16.6475L5.43085 16.8392L4.22419 15.6892C5.19915 14.6691 5.76939 13.329 5.82835 11.9192L5.83335 11.6667V9.16669C5.83335 8.06163 6.27234 7.00182 7.05374 6.22042C7.83514 5.43902 8.89495 5.00003 10 5.00003ZM10 1.6667C11.9891 1.6667 13.8968 2.45687 15.3033 3.86339C16.7098 5.26992 17.5 7.17757 17.5 9.16669V11.6667C17.5 13.0817 17.3317 14.475 17.0025 15.825L16.8867 16.2742L15.2784 15.8359C15.605 14.6384 15.7892 13.4009 15.8267 12.14L15.8334 11.6667V9.16669C15.8334 8.08408 15.5321 7.02283 14.9632 6.1017C14.3944 5.18057 13.5805 4.43591 12.6125 3.95106C11.6445 3.46621 10.5607 3.2603 9.48238 3.35637C8.40404 3.45244 7.3737 3.8467 6.50669 4.49503L5.31919 3.3067C6.64708 2.24276 8.29848 1.66417 10 1.6667ZM4.14002 4.48586L5.32835 5.67336C4.61363 6.62605 4.20924 7.77552 4.17002 8.96586L4.16669 9.16669L4.17002 10.8334C4.17002 11.7667 3.95002 12.6692 3.53502 13.4809L3.40502 13.7225L1.95752 12.8959C2.27586 12.3395 2.46018 11.7167 2.49585 11.0767L2.50335 10.8334V9.16669C2.49841 7.4653 3.07598 5.81348 4.14002 4.48586Z" fill="#8A2BE2"/>
</g>
<defs>
<clipPath id="clip0_59_5">
<rect width="20" height="20" fill="white"/>
</clipPath>
</defs>
</svg>
