<svg width="18" height="14" viewBox="0 0 18 14" fill="none" xmlns="http://www.w3.org/2000/svg">
<g clip-path="url(#clip0_55_2)">
<path d="M5.24302 6.65702L0.29302 1.70702C0.19751 1.61477 0.121328 1.50443 0.0689187 1.38242C0.0165097 1.26042 -0.0110765 1.1292 -0.0122303 0.996421C-0.0133841 0.863642 0.0119176 0.731962 0.0621985 0.609066C0.112479 0.48617 0.186732 0.374518 0.280625 0.280625C0.374518 0.186732 0.48617 0.112479 0.609066 0.0621985C0.731962 0.0119176 0.863642 -0.0133841 0.996421 -0.0122303C1.1292 -0.0110765 1.26042 0.0165097 1.38242 0.0689187C1.50443 0.121328 1.61477 0.19751 1.70702 0.29302L7.36402 5.95002C7.55149 6.13755 7.65681 6.39186 7.65681 6.65702C7.65681 6.92218 7.55149 7.17649 7.36402 7.36402L1.70702 13.021C1.61477 13.1165 1.50443 13.1927 1.38242 13.2451C1.26042 13.2975 1.1292 13.3251 0.996421 13.3263C0.863642 13.3274 0.731962 13.3021 0.609066 13.2518C0.48617 13.2016 0.374518 13.1273 0.280625 13.0334C0.186732 12.9395 0.112479 12.8279 0.0621985 12.705C0.0119176 12.5821 -0.0133841 12.4504 -0.0122303 12.3176C-0.0110765 12.1848 0.0165097 12.0536 0.0689187 11.9316C0.121328 11.8096 0.19751 11.6993 0.29302 11.607L5.24302 6.65702ZM9.00002 11H17C17.2652 11 17.5196 11.1054 17.7071 11.2929C17.8947 11.4804 18 11.7348 18 12C18 12.2652 17.8947 12.5196 17.7071 12.7071C17.5196 12.8947 17.2652 13 17 13H9.00002C8.7348 13 8.48045 12.8947 8.29291 12.7071C8.10538 12.5196 8.00002 12.2652 8.00002 12C8.00002 11.7348 8.10538 11.4804 8.29291 11.2929C8.48045 11.1054 8.7348 11 9.00002 11Z" fill="#8A2BE2"/>
</g>
<defs>
<clipPath id="clip0_55_2">
<rect width="18" height="14" fill="white"/>
</clipPath>
</defs>
</svg>
