<svg width="22" height="22" viewBox="0 0 22 22" fill="none" xmlns="http://www.w3.org/2000/svg">
<g clip-path="url(#clip0_57_2)">
<path d="M8.97504 5.19847C8.93796 6.19485 9.10689 7.18815 9.47126 8.11626C9.83562 9.04436 10.3876 9.88729 11.0926 10.5923C11.7976 11.2974 12.6406 11.8493 13.5687 12.2137C14.4968 12.578 15.4901 12.747 16.4865 12.7099C15.4901 12.6728 14.4968 12.8418 13.5687 13.2061C12.6406 13.5705 11.7977 14.1225 11.0926 14.8275C10.3876 15.5325 9.83563 16.3754 9.47127 17.3035C9.1069 18.2316 8.93797 19.2249 8.97504 20.2213C9.01211 19.2249 8.84318 18.2316 8.47881 17.3035C8.11444 16.3754 7.56248 15.5325 6.85745 14.8275C6.15242 14.1225 5.3095 13.5705 4.38139 13.2061C3.45329 12.8418 2.45999 12.6728 1.46362 12.7099C2.45999 12.747 3.4533 12.578 4.3814 12.2137C5.3095 11.8493 6.15243 11.2974 6.85746 10.5923C7.56249 9.88729 8.11445 9.04436 8.47882 8.11626C8.84318 7.18815 9.01211 6.19485 8.97504 5.19847ZM8.97504 4.37347C8.8667 4.37347 8.75942 4.39481 8.65932 4.43627C8.55923 4.47773 8.46828 4.5385 8.39167 4.61511C8.31507 4.69172 8.2543 4.78267 8.21284 4.88276C8.17138 4.98285 8.15004 5.09013 8.15004 5.19847C8.19121 6.08748 8.04643 6.9753 7.72497 7.80517C7.40352 8.63504 6.91244 9.38872 6.28315 10.018C5.65385 10.6473 4.90018 11.1384 4.07031 11.4598C3.24043 11.7813 2.35262 11.9261 1.46361 11.8849C1.24481 11.8849 1.03497 11.9718 0.880248 12.1265C0.72553 12.2813 0.638611 12.4911 0.638611 12.7099C0.638611 12.9287 0.72553 13.1385 0.880248 13.2933C1.03497 13.448 1.24481 13.5349 1.46361 13.5349C2.35262 13.4937 3.24043 13.6385 4.0703 13.96C4.90018 14.2814 5.65385 14.7725 6.28315 15.4018C6.91244 16.0311 7.40352 16.7847 7.72497 17.6146C8.04643 18.4445 8.19121 19.3323 8.15004 20.2213C8.15004 20.4401 8.23696 20.65 8.39167 20.8047C8.54639 20.9594 8.75623 21.0463 8.97504 21.0463C9.19384 21.0463 9.40368 20.9594 9.5584 20.8047C9.71312 20.65 9.80004 20.4401 9.80004 20.2213C9.75887 19.3323 9.90364 18.4445 10.2251 17.6146C10.5466 16.7847 11.0376 16.0311 11.6669 15.4018C12.2962 14.7725 13.0499 14.2814 13.8798 13.96C14.7096 13.6385 15.5975 13.4937 16.4865 13.5349C16.7053 13.5349 16.9151 13.448 17.0698 13.2933C17.2245 13.1385 17.3115 12.9287 17.3115 12.7099C17.3115 12.4911 17.2245 12.2813 17.0698 12.1265C16.9151 11.9718 16.7053 11.8849 16.4865 11.8849C15.5975 11.9261 14.7096 11.7813 13.8798 11.4598C13.0499 11.1384 12.2962 10.6473 11.6669 10.018C11.0376 9.38872 10.5466 8.63504 10.2251 7.80517C9.90364 6.9753 9.75887 6.08748 9.80004 5.19847C9.80004 4.97967 9.71312 4.76983 9.5584 4.61511C9.40368 4.46039 9.19384 4.37347 8.97504 4.37347Z" fill="#8A2BE2"/>
<path d="M16.6035 1.77867C16.5841 2.30035 16.6726 2.82043 16.8633 3.30636C17.0541 3.79229 17.3431 4.23363 17.7122 4.60277C18.0814 4.97191 18.5227 5.26091 19.0087 5.45168C19.4946 5.64245 20.0147 5.7309 20.5363 5.71149C20.0147 5.69208 19.4946 5.78053 19.0087 5.9713C18.5227 6.16208 18.0814 6.45107 17.7122 6.82021C17.3431 7.18935 17.0541 7.63069 16.8633 8.11662C16.6726 8.60255 16.5841 9.12263 16.6035 9.64431C16.6229 9.12263 16.5345 8.60255 16.3437 8.11662C16.1529 7.63069 15.8639 7.18935 15.4948 6.82021C15.1257 6.45107 14.6843 6.16208 14.1984 5.9713C13.7125 5.78053 13.1924 5.69208 12.6707 5.71149C13.1924 5.7309 13.7125 5.64245 14.1984 5.45168C14.6843 5.2609 15.1257 4.97191 15.4948 4.60277C15.8639 4.23363 16.1529 3.79229 16.3437 3.30636C16.5345 2.82043 16.6229 2.30035 16.6035 1.77867ZM16.6035 0.953674C16.3847 0.953674 16.1749 1.04059 16.0202 1.19531C15.8654 1.35003 15.7785 1.55987 15.7785 1.77867C15.7977 2.19188 15.7304 2.60453 15.581 2.99025C15.4315 3.37597 15.2033 3.72627 14.9108 4.01877C14.6183 4.31126 14.268 4.5395 13.8823 4.68892C13.4966 4.83833 13.0839 4.90561 12.6707 4.88648C12.4519 4.88648 12.2421 4.9734 12.0873 5.12811C11.9326 5.28283 11.8457 5.49267 11.8457 5.71148C11.8457 5.93028 11.9326 6.14012 12.0873 6.29484C12.2421 6.44956 12.4519 6.53648 12.6707 6.53648C13.0839 6.51734 13.4966 6.58463 13.8823 6.73404C14.268 6.88346 14.6183 7.1117 14.9108 7.4042C15.2033 7.69669 15.4315 8.04699 15.5809 8.43271C15.7304 8.81843 15.7976 9.23108 15.7785 9.64429C15.7785 9.86309 15.8654 10.0729 16.0201 10.2277C16.1749 10.3824 16.3847 10.4693 16.6035 10.4693C16.8223 10.4693 17.0322 10.3824 17.1869 10.2277C17.3416 10.0729 17.4285 9.86309 17.4285 9.64429C17.4094 9.23108 17.4767 8.81843 17.6261 8.4327C17.7755 8.04698 18.0037 7.69668 18.2962 7.40419C18.5887 7.11169 18.939 6.88345 19.3248 6.73404C19.7105 6.58462 20.1231 6.51734 20.5363 6.53648C20.7551 6.53648 20.965 6.44956 21.1197 6.29484C21.2744 6.14012 21.3613 5.93028 21.3613 5.71148C21.3613 5.49267 21.2744 5.28283 21.1197 5.12811C20.965 4.9734 20.7551 4.88648 20.5363 4.88648C20.1231 4.90562 19.7105 4.83833 19.3248 4.68892C18.939 4.53951 18.5887 4.31126 18.2962 4.01877C18.0037 3.72628 17.7755 3.37598 17.6261 2.99025C17.4767 2.60453 17.4094 2.19188 17.4285 1.77867C17.4285 1.55987 17.3416 1.35003 17.1869 1.19531C17.0322 1.04059 16.8223 0.953674 16.6035 0.953674Z" fill="#8A2BE2"/>
</g>
<defs>
<clipPath id="clip0_57_2">
<rect width="22" height="22" fill="white"/>
</clipPath>
</defs>
</svg>
